<?xml version="1.0" encoding="UTF-8"?>
<svg xmlns="http://www.w3.org/2000/svg" xmlns:xlink="http://www.w3.org/1999/xlink" viewBox="0 0 30 30" width="30px" height="30px">
<g id="surface154750153">
<path style=" stroke:none;fill-rule:nonzero;fill:rgb(18.039216%,80.000001%,44.313726%);fill-opacity:1;" d="M 27.5 15 C 27.5 21.902344 21.902344 27.5 15 27.5 C 8.097656 27.5 2.5 21.902344 2.5 15 C 2.5 8.097656 8.097656 2.5 15 2.5 C 21.902344 2.5 27.5 8.097656 27.5 15 Z M 27.5 15 "/>
<path style=" stroke:none;fill-rule:nonzero;fill:rgb(100%,100%,100%);fill-opacity:1;" d="M 14.0625 20.625 C 13.921875 20.625 13.785156 20.578125 13.671875 20.488281 L 8.984375 16.738281 C 8.714844 16.523438 8.671875 16.128906 8.886719 15.859375 C 9.105469 15.589844 9.496094 15.546875 9.765625 15.761719 L 13.933594 19.097656 L 20.113281 10.265625 C 20.3125 9.984375 20.699219 9.917969 20.984375 10.113281 C 21.265625 10.3125 21.335938 10.703125 21.136719 10.984375 L 14.574219 20.359375 C 14.476562 20.5 14.324219 20.59375 14.152344 20.621094 C 14.121094 20.625 14.09375 20.625 14.0625 20.625 Z M 14.0625 20.625 "/>
</g>
</svg>
